#N canvas 33 56 250 294 10;
#X msg 81 63 2;
#X obj 82 159 + 3;
#X floatatom 82 190 5 0 0 0 - - -;
#X floatatom 152 67 5 0 0 0 - - -;
#X msg 96 90 bang;
#X connect 0 0 1 0;
#X connect 1 0 2 0;
#X connect 3 0 1 1;
#X connect 3 0 4 0;
#X connect 4 0 1 0;
