#N canvas 32 45 1024 790 16;
#X obj 44 668 dac~;
#X obj 44 231 osc~ 440;
#X obj 44 184 mtof;
#X obj 47 143 hsl 128 15 0 127 0 0 empty empty empty -2 -8 0 10 -262144
-1 -1 0 1;
#X obj 44 319 *~;
#X obj 62 296 hsl 128 15 0 1 0 0 empty empty empty -2 -8 0 10 -262144
-1 -1 0 1;
#X floatatom 237 210 5 0 0 0 - - -;
#X obj 220 247 phasor~ 440;
#X obj 171 461 *~;
#X obj 189 424 hsl 128 15 0 1 0 0 empty empty empty -2 -8 0 10 -262144
-1 -1 0 1;
#X obj 434 263 phasor~ 440;
#X obj 434 418 *~;
#X obj 452 395 hsl 128 15 0 1 0 0 empty empty empty -2 -8 0 10 -262144
-1 -1 0 1;
#X obj 45 627 +~;
#N canvas 0 22 450 300 (subpatch) 0;
#X array Waveform 100 float 3;
#A 0 0 0 0 0 0 0 0 0 0 0 0 0 0 0 0 0 0 0 0 0 0 0 0 0 0 0 0 0 0 0 0
0 0 0 0 0 0 0 0 0 0 0 0 0 0 0 0 0 0 0 0 0 0 0 0 0 0 0 0 0 0 0 0 0 0
0 0 0 0 0 0 0 0 0 0 0 0 0 0 0 0 0 0 0 0 0 0 0 0 0 0 0 0 0 0 0 0 0 0
0;
#X coords 0 1 99 -1 200 140 1;
#X restore 741 77 graph;
#X obj 126 669 tabwrite~ Waveform;
#X obj 125 620 tgl 15 0 empty empty empty 17 7 0 10 -262144 -1 -1 0
1;
#X obj 126 642 metro 100;
#X obj 434 293 expr~ ($v1 > 0.5) * 2 - 1;
#X obj 259 272 *~ -1;
#X obj 260 295 +~ 1;
#X obj 223 315 min~;
#X obj 196 341 -~ 0.25;
#X obj 158 380 *~ 4;
#X floatatom 98 173 5 0 0 0 - - -;
#X floatatom 59 42 5 0 0 0 - - -;
#X obj 44 67 * 127;
#X floatatom 60 115 5 0 0 0 - - -;
#X obj 44 91 div 1;
#X floatatom 129 272 5 0 0 0 - - -;
#X obj 114 248 r fader2;
#X floatatom 265 399 5 0 0 0 - - -;
#X obj 250 375 r fader3;
#X floatatom 464 364 5 0 0 0 - - -;
#X obj 449 340 r fader4;
#X obj 163 582 r toggle1;
#X obj 44 18 r foo;
#N canvas 604 524 393 463 OSC_handler 0;
#X obj 40 29 dumpOSC 8000;
#X obj 40 65 routeOSC /1;
#X obj 127 306 send fader2;
#X obj 139 262 send fader3;
#X obj 151 215 send fader4;
#X obj 172 60 print rcvOSC;
#X obj 35 395 routeOSC /fader2;
#X obj 127 285 routeOSC /fader4;
#X obj 139 241 routeOSC /fader5;
#X obj 151 194 routeOSC /fader3;
#X obj 160 141 routeOSC /toggle1;
#X obj 160 165 send toggle1;
#X obj 35 424 send foo;
#X connect 0 0 1 0;
#X connect 0 0 5 0;
#X connect 1 0 6 0;
#X connect 1 0 7 0;
#X connect 1 0 8 0;
#X connect 1 0 9 0;
#X connect 1 0 10 0;
#X connect 6 0 12 0;
#X connect 7 0 2 0;
#X connect 8 0 3 0;
#X connect 9 0 4 0;
#X connect 10 0 11 0;
#X restore 441 37 pd OSC_handler;
#X connect 1 0 4 0;
#X connect 2 0 6 0;
#X connect 2 0 1 0;
#X connect 2 0 7 0;
#X connect 2 0 10 0;
#X connect 3 0 2 0;
#X connect 3 0 24 0;
#X connect 4 0 13 0;
#X connect 5 0 4 1;
#X connect 7 0 19 0;
#X connect 7 0 21 0;
#X connect 8 0 13 0;
#X connect 9 0 8 1;
#X connect 10 0 18 0;
#X connect 11 0 13 0;
#X connect 12 0 11 1;
#X connect 13 0 0 0;
#X connect 13 0 0 1;
#X connect 13 0 15 0;
#X connect 16 0 17 0;
#X connect 17 0 15 0;
#X connect 18 0 11 0;
#X connect 19 0 20 0;
#X connect 20 0 21 1;
#X connect 21 0 22 0;
#X connect 22 0 23 0;
#X connect 23 0 8 0;
#X connect 26 0 28 0;
#X connect 28 0 27 0;
#X connect 28 0 3 0;
#X connect 30 0 29 0;
#X connect 30 0 5 0;
#X connect 32 0 31 0;
#X connect 32 0 9 0;
#X connect 34 0 33 0;
#X connect 34 0 12 0;
#X connect 35 0 16 0;
#X connect 36 0 25 0;
#X connect 36 0 26 0;
