#N canvas 33 56 994 533 10;
#X obj 64 425 dac~;
#X obj 64 163 osc~ 440;
#X obj 64 77 mtof;
#X obj 67 52 hsl 128 15 0 127 0 0 empty empty empty -2 -8 0 10 -262144
-1 -1 0 1;
#X obj 64 212 *~;
#X obj 82 189 hsl 128 15 0 1 0 0 empty empty empty -2 -8 0 10 -262144
-1 -1 0 1;
#X floatatom 257 103 5 0 0 0 - - -;
#X obj 240 140 phasor~ 440;
#X obj 211 297 *~;
#X obj 229 265 hsl 128 15 0 1 0 0 empty empty empty -2 -8 0 10 -262144
-1 -1 0 1;
#X obj 454 156 phasor~ 440;
#X obj 454 245 *~;
#X obj 472 222 hsl 128 15 0 1 0 0 empty empty empty -2 -8 0 10 -262144
-1 -1 0 1;
#X obj 65 384 +~;
#N canvas 0 22 450 300 (subpatch) 0;
#X array Waveform 100 float 3;
#A 0 0 0 0 0 0 0 0 0 0 0 0 0 0 0 0 0 0 0 0 0 0 0 0 0 0 0 0 0 0 0 0
0 0 0 0 0 0 0 0 0 0 0 0 0 0 0 0 0 0 0 0 0 0 0 0 0 0 0 0 0 0 0 0 0 0
0 0 0 0 0 0 0 0 0 0 0 0 0 0 0 0 0 0 0 0 0 0 0 0 0 0 0 0 0 0 0 0 0 0
0;
#X coords 0 1 99 -1 200 140 1;
#X restore 741 77 graph;
#X obj 146 426 tabwrite~ Waveform;
#X obj 145 377 tgl 15 0 empty empty empty 17 7 0 10 -262144 -1 -1 0
1;
#X obj 146 399 metro 100;
#X obj 454 186 expr~ ($v1 > 0.5) * 2 - 1;
#X obj 279 165 *~ -1;
#X obj 280 188 +~ 1;
#X obj 243 208 min~;
#X obj 216 234 -~ 0.25;
#X obj 178 273 *~ 4;
#X connect 1 0 4 0;
#X connect 2 0 6 0;
#X connect 2 0 1 0;
#X connect 2 0 7 0;
#X connect 2 0 10 0;
#X connect 3 0 2 0;
#X connect 4 0 13 0;
#X connect 5 0 4 1;
#X connect 7 0 19 0;
#X connect 7 0 21 0;
#X connect 8 0 13 0;
#X connect 9 0 8 1;
#X connect 10 0 18 0;
#X connect 11 0 13 0;
#X connect 12 0 11 1;
#X connect 13 0 0 0;
#X connect 13 0 0 1;
#X connect 13 0 15 0;
#X connect 16 0 17 0;
#X connect 17 0 15 0;
#X connect 18 0 11 0;
#X connect 19 0 20 0;
#X connect 20 0 21 1;
#X connect 21 0 22 0;
#X connect 22 0 23 0;
#X connect 23 0 8 0;
