#N canvas 1130 351 450 300 16;
#X obj -300 144 phasor~ 440;
#X obj -300 174 expr~ ($v1 > 0.5) * 2 - 1;
#X obj -331 27 inlet;
#X obj -297 258 outlet~;
#X connect 0 0 1 0;
#X connect 1 0 3 0;
#X connect 2 0 0 0;
